<svg width="1200" height="630" viewBox="0 0 1200 630" fill="none" xmlns="http://www.w3.org/2000/svg">
<defs>
  <linearGradient id="g1" x1="0" y1="0" x2="1" y2="1">
    <stop offset="0%" stop-color="#0f172a"/>
    <stop offset="100%" stop-color="#1e1b4b"/>
  </linearGradient>
</defs>
<rect width="1200" height="630" fill="url(#g1)"/>
<rect x="100" y="150" width="1000" height="330" rx="20" fill="#6366f1" opacity="0.1"/>
<rect x="150" y="200" width="200" height="230" rx="12" fill="#1e293b" stroke="#334155" stroke-width="2"/>
<rect x="170" y="220" width="160" height="20" rx="4" fill="#6366f1" opacity="0.5"/>
<rect x="170" y="260" width="120" height="12" rx="2" fill="#475569"/>
<rect x="170" y="285" width="140" height="12" rx="2" fill="#475569"/>
<rect x="170" y="310" width="100" height="12" rx="2" fill="#475569"/>
<rect x="170" y="350" width="80" height="30" rx="6" fill="#6366f1"/>
<rect x="260" y="350" width="60" height="30" rx="6" fill="#334155"/>
<rect x="400" y="200" width="200" height="230" rx="12" fill="#1e293b" stroke="#334155" stroke-width="2"/>
<rect x="420" y="220" width="160" height="20" rx="4" fill="#22c55e" opacity="0.5"/>
<rect x="420" y="260" width="120" height="12" rx="2" fill="#475569"/>
<rect x="420" y="285" width="140" height="12" rx="2" fill="#475569"/>
<rect x="420" y="310" width="100" height="12" rx="2" fill="#475569"/>
<rect x="420" y="350" width="80" height="30" rx="6" fill="#22c55e"/>
<rect x="510" y="350" width="60" height="30" rx="6" fill="#334155"/>
<rect x="650" y="200" width="200" height="230" rx="12" fill="#1e293b" stroke="#334155" stroke-width="2"/>
<rect x="670" y="220" width="160" height="20" rx="4" fill="#f59e0b" opacity="0.5"/>
<rect x="670" y="260" width="120" height="12" rx="2" fill="#475569"/>
<rect x="670" y="285" width="140" height="12" rx="2" fill="#475569"/>
<rect x="670" y="310" width="100" height="12" rx="2" fill="#475569"/>
<rect x="670" y="350" width="80" height="30" rx="6" fill="#f59e0b"/>
<rect x="760" y="350" width="60" height="30" rx="6" fill="#334155"/>
<rect x="900" y="200" width="200" height="230" rx="12" fill="#1e293b" stroke="#6366f1" stroke-width="2"/>
<rect x="920" y="220" width="160" height="100" rx="8" fill="#0f172a"/>
<rect x="940" y="240" width="60" height="60" fill="none" stroke="#6366f1" stroke-width="3"/>
<rect x="960" y="260" width="20" height="20" fill="#6366f1"/>
<rect x="920" y="340" width="160" height="12" rx="2" fill="#475569"/>
<rect x="920" y="365" width="120" height="12" rx="2" fill="#475569"/>
<text x="600" y="540" text-anchor="middle" font-size="36" fill="#e2e8f0" font-family="Segoe UI, Roboto, Arial" font-weight="600">Inventory Management System</text>
<text x="600" y="580" text-anchor="middle" font-size="18" fill="#94a3b8" font-family="Segoe UI, Roboto, Arial">PHP • MySQL • MVC Architecture</text>
</svg>
