<svg width="1200" height="630" viewBox="0 0 1200 630" fill="none" xmlns="http://www.w3.org/2000/svg">
<defs>
  <linearGradient id="g2" x1="0" y1="0" x2="1" y2="1">
    <stop offset="0%" stop-color="#0f172a"/>
    <stop offset="100%" stop-color="#172554"/>
  </linearGradient>
</defs>
<rect width="1200" height="630" fill="url(#g2)"/>
<circle cx="600" cy="280" r="180" fill="#3b82f6" opacity="0.1"/>
<rect x="200" y="150" width="350" height="280" rx="16" fill="#1e293b" stroke="#334155" stroke-width="2"/>
<rect x="220" y="170" width="310" height="40" rx="8" fill="#0f172a"/>
<circle cx="240" cy="190" r="10" fill="#ef4444"/>
<circle cx="270" cy="190" r="10" fill="#f59e0b"/>
<circle cx="300" cy="190" r="10" fill="#22c55e"/>
<rect x="220" y="230" width="310" height="180" rx="8" fill="#0f172a"/>
<rect x="240" y="250" width="80" height="30" rx="6" fill="#3b82f6"/>
<rect x="330" y="250" width="80" height="30" rx="6" fill="#1e293b" stroke="#334155"/>
<rect x="420" y="250" width="80" height="30" rx="6" fill="#1e293b" stroke="#334155"/>
<rect x="240" y="300" width="270" height="40" rx="8" fill="#1e293b" stroke="#334155"/>
<text x="375" y="328" text-anchor="middle" font-size="14" fill="#64748b" font-family="Segoe UI">admin@university.edu</text>
<rect x="240" y="350" width="270" height="40" rx="8" fill="#1e293b" stroke="#334155"/>
<circle cx="260" cy="370" r="8" fill="#334155"/>
<circle cx="280" cy="370" r="8" fill="#334155"/>
<circle cx="300" cy="370" r="8" fill="#334155"/>
<circle cx="320" cy="370" r="8" fill="#334155"/>
<circle cx="340" cy="370" r="8" fill="#334155"/>
<circle cx="360" cy="370" r="8" fill="#334155"/>
<rect x="650" y="150" width="350" height="280" rx="16" fill="#1e293b" stroke="#3b82f6" stroke-width="2"/>
<rect x="670" y="170" width="310" height="50" rx="8" fill="#3b82f6" opacity="0.2"/>
<text x="825" y="202" text-anchor="middle" font-size="18" fill="#e2e8f0" font-family="Segoe UI" font-weight="600">Student Dashboard</text>
<rect x="670" y="240" width="145" height="80" rx="8" fill="#0f172a"/>
<text x="742" y="275" text-anchor="middle" font-size="28" fill="#22c55e" font-family="Segoe UI" font-weight="700">3.85</text>
<text x="742" y="300" text-anchor="middle" font-size="12" fill="#64748b" font-family="Segoe UI">GPA</text>
<rect x="835" y="240" width="145" height="80" rx="8" fill="#0f172a"/>
<text x="907" y="275" text-anchor="middle" font-size="28" fill="#3b82f6" font-family="Segoe UI" font-weight="700">96</text>
<text x="907" y="300" text-anchor="middle" font-size="12" fill="#64748b" font-family="Segoe UI">Credits</text>
<rect x="670" y="340" width="310" height="70" rx="8" fill="#0f172a"/>
<rect x="690" y="360" width="60" height="30" rx="4" fill="#22c55e" opacity="0.2"/>
<rect x="760" y="360" width="60" height="30" rx="4" fill="#3b82f6" opacity="0.2"/>
<rect x="830" y="360" width="60" height="30" rx="4" fill="#f59e0b" opacity="0.2"/>
<rect x="900" y="360" width="60" height="30" rx="4" fill="#ef4444" opacity="0.2"/>
<rect x="450" y="480" width="300" height="50" rx="25" fill="#22c55e" opacity="0.15" stroke="#22c55e" stroke-width="2"/>
<circle cx="480" cy="505" r="12" fill="#22c55e"/>
<path d="M474 505 L478 509 L486 501" stroke="white" stroke-width="2" fill="none"/>
<text x="600" y="512" text-anchor="middle" font-size="16" fill="#22c55e" font-family="Segoe UI" font-weight="500">Secure • Encrypted • Protected</text>
<text x="600" y="570" text-anchor="middle" font-size="36" fill="#e2e8f0" font-family="Segoe UI, Roboto, Arial" font-weight="600">Student Information System</text>
<text x="600" y="610" text-anchor="middle" font-size="18" fill="#94a3b8" font-family="Segoe UI, Roboto, Arial">Angular • Node.js • JWT • SSL/TLS</text>
</svg>
